<?xml version="1.0" encoding="UTF-8"?>
<!DOCTYPE svg PUBLIC "-//W3C//DTD SVG 1.1//EN" "http://www.w3.org/Graphics/SVG/1.1/DTD/svg11.dtd">
<svg xmlns="http://www.w3.org/2000/svg" version="1.1" width="1200px" height="980px" style="shape-rendering:geometricPrecision; text-rendering:geometricPrecision; image-rendering:optimizeQuality; fill-rule:evenodd; clip-rule:evenodd" xmlns:xlink="http://www.w3.org/1999/xlink">
<g><path style="opacity:0.972" fill="#bb9753" d="M 681.5,14.5 C 686.773,28.8175 691.773,43.3175 696.5,58C 711.833,58.3333 727.167,58.6667 742.5,59C 730.167,68.1667 717.833,77.3333 705.5,86.5C 710.535,101.098 715.035,115.765 719,130.5C 706.667,121.5 694.333,112.5 682,103.5C 669.667,112.5 657.333,121.5 645,130.5C 647.955,116.625 651.955,102.959 657,89.5C 657.667,88.1667 657.667,86.8333 657,85.5C 645.026,77.0265 633.193,68.3598 621.5,59.5C 636.819,58.5006 652.152,58.1673 667.5,58.5C 671.567,43.6339 676.233,28.9673 681.5,14.5 Z"/></g>
<g><path style="opacity:0.972" fill="#bb9753" d="M 517.5,14.5 C 518.497,14.4701 519.164,14.9701 519.5,16C 523.773,30.1531 528.44,44.1531 533.5,58C 548.833,58.3333 564.167,58.6667 579.5,59C 567.333,67.8333 555.167,76.6667 543,85.5C 546.561,100.356 551.061,115.023 556.5,129.5C 556.167,129.833 555.833,130.167 555.5,130.5C 543.344,121.255 531.011,112.255 518.5,103.5C 505.912,112.377 493.412,121.377 481,130.5C 484.859,115.917 489.359,101.417 494.5,87C 482.509,77.3593 470.176,68.0259 457.5,59C 472.833,58.6667 488.167,58.3333 503.5,58C 508.869,43.7251 513.536,29.2251 517.5,14.5 Z"/></g>
<g><path style="opacity:0.965" fill="#fefefd" d="M 567.5,153.5 C 675.137,149.471 779.47,165.971 880.5,203C 960.545,232.409 1030.38,277.242 1090,337.5C 1128.73,378.262 1156.73,425.596 1174,479.5C 1197.48,568.28 1184.48,651.28 1135,728.5C 1096.14,786.034 1046.97,832.534 987.5,868C 898.764,920.135 803.097,952.135 700.5,964C 561.208,980.858 426.541,963.192 296.5,911C 224.708,881.506 161.875,839.006 108,783.5C 71.6497,744.83 44.9831,700.163 28,649.5C 2.18125,559.23 14.5146,474.564 65,395.5C 100.533,343.301 144.7,299.801 197.5,265C 288.389,207.81 387.389,172.81 494.5,160C 518.924,157.104 543.257,154.938 567.5,153.5 Z"/></g>
<g><path style="opacity:1" fill="#bb9754" d="M 564.5,171.5 C 682.367,166.74 795.7,186.906 904.5,232C 974.541,261.922 1035.37,304.755 1087,360.5C 1125.24,403.315 1150.58,452.982 1163,509.5C 1175.06,581.992 1162.06,649.659 1124,712.5C 1090.21,764.622 1047.38,807.789 995.5,842C 926.602,886.31 851.936,916.977 771.5,934C 675.748,953.574 579.415,956.908 482.5,944C 386.878,930.573 297.878,898.906 215.5,849C 168.072,819.246 127.238,782.079 93,737.5C 49.8404,679.012 29.8404,613.345 33,540.5C 38.9094,482.709 59.2427,430.709 94,384.5C 136.417,330.392 187.917,287.225 248.5,255C 325.191,214.659 406.524,188.992 492.5,178C 516.6,175.222 540.6,173.055 564.5,171.5 Z"/></g>
<g><path style="opacity:1" fill="#fdfcfa" d="M 579.5,195.5 C 597.927,195.026 616.26,195.526 634.5,197C 636.478,199.497 636.978,202.331 636,205.5C 635.097,206.701 633.931,207.535 632.5,208C 615.5,208.333 598.5,208.667 581.5,209C 575.938,214.163 576.271,218.829 582.5,223C 598.833,223.333 615.167,223.667 631.5,224C 636.342,227.694 636.675,231.694 632.5,236C 615.167,236.667 597.833,236.667 580.5,236C 567.937,231.046 563.104,221.879 566,208.5C 569.101,202.563 573.601,198.23 579.5,195.5 Z"/></g>
<g><path style="opacity:1" fill="#fdfcfa" d="M 529.5,197.5 C 533.637,197.146 537.637,197.646 541.5,199C 544.167,202.333 544.167,205.667 541.5,209C 525.223,211.1 508.889,213.1 492.5,215C 485.987,218.567 484.987,223.234 489.5,229C 490.873,229.875 492.373,230.375 494,230.5C 509.754,227.867 525.588,226.367 541.5,226C 545.292,228.053 546.458,231.219 545,235.5C 544.167,236.333 543.333,237.167 542.5,238C 526.317,239.71 510.15,241.544 494,243.5C 481.43,241.928 474.597,234.761 473.5,222C 475.509,210.658 482.176,203.991 493.5,202C 505.712,200.973 517.712,199.473 529.5,197.5 Z"/></g>
<g><path style="opacity:1" fill="#fdfcfa" d="M 672.5,198.5 C 691.089,199.733 709.423,202.4 727.5,206.5C 730.499,210.672 729.832,214.172 725.5,217C 709.552,215.174 693.552,213.34 677.5,211.5C 670.392,212.466 667.892,216.466 670,223.5C 671.214,225.049 672.714,226.215 674.5,227C 689.951,228.124 705.285,230.124 720.5,233C 724.292,235.053 725.458,238.219 724,242.5C 722.406,244.297 720.406,245.297 718,245.5C 703.925,242.96 689.758,241.126 675.5,240C 660.504,236.855 654.338,227.689 657,212.5C 660.492,205.834 665.659,201.168 672.5,198.5 Z"/></g>
<g><path style="opacity:1" fill="#fdfcfa" d="M 440.5,210.5 C 450.239,209.386 453.239,213.22 449.5,222C 434.12,225.345 418.786,229.011 403.5,233C 398.076,235.017 396.242,238.85 398,244.5C 399.87,247.018 402.37,248.352 405.5,248.5C 420.07,244.738 434.736,241.405 449.5,238.5C 455.286,238.119 457.786,240.786 457,246.5C 456.535,247.931 455.701,249.097 454.5,250C 437.766,253.517 421.099,257.35 404.5,261.5C 389.315,258.81 382.815,249.81 385,234.5C 387.5,228 392,223.5 398.5,221C 412.629,217.468 426.629,213.968 440.5,210.5 Z"/></g>
<g><path style="opacity:1" fill="#fdfcfa" d="M 760.5,213.5 C 766.221,213.369 771.888,213.869 777.5,215C 790.914,218.354 804.247,222.02 817.5,226C 821.092,228.971 821.425,232.304 818.5,236C 816.966,236.923 815.299,237.423 813.5,237.5C 799.773,234.152 786.107,230.652 772.5,227C 762.741,224.101 758.574,227.601 760,237.5C 761.167,238.667 762.333,239.833 763.5,241C 779.042,244.241 794.376,248.241 809.5,253C 813.393,256.588 813.393,260.254 809.5,264C 807.167,264.667 804.833,264.667 802.5,264C 786.682,260.129 771.015,255.796 755.5,251C 745.976,242.588 744.143,232.754 750,221.5C 752.94,217.963 756.44,215.297 760.5,213.5 Z"/></g>
<g><path style="opacity:1" fill="#21211e" d="M 354.5,216.5 C 366.605,214.799 375.105,219.466 380,230.5C 380.791,236.296 380.291,241.963 378.5,247.5C 375.171,247.002 372.005,246.002 369,244.5C 366.472,250.253 364.639,256.253 363.5,262.5C 382.714,268.792 401.714,275.459 420.5,282.5C 419.833,282.5 419.5,282.833 419.5,283.5C 401.244,277.47 383.077,271.137 365,264.5C 364.5,264.833 364,265.167 363.5,265.5C 366.15,279.371 367.817,293.371 368.5,307.5C 368.806,310.385 368.473,313.052 367.5,315.5C 367.5,314.833 367.5,314.167 367.5,313.5C 367.737,312.209 367.404,311.209 366.5,310.5C 366.815,306.629 366.482,302.962 365.5,299.5C 365.102,288.755 363.936,278.088 362,267.5C 357.855,280.082 354.022,292.748 350.5,305.5C 349.434,307.701 348.767,310.035 348.5,312.5C 348.5,312.833 348.5,313.167 348.5,313.5C 340.925,336.9 333.925,360.567 327.5,384.5C 320.13,407.619 313.13,430.953 306.5,454.5C 299.303,478.092 292.303,501.759 285.5,525.5C 278.526,548.06 271.859,570.727 265.5,593.5C 264.596,594.209 264.263,595.209 264.5,596.5C 257.507,619.801 250.507,643.134 243.5,666.5C 243.5,666.833 243.5,667.167 243.5,667.5C 236.14,691.074 229.306,714.741 223,738.5C 223.383,737.944 223.883,737.611 224.5,737.5C 225.167,737.5 225.833,737.5 226.5,737.5C 225.657,739.173 224.324,740.34 222.5,741C 227.793,740.285 233.126,739.452 238.5,738.5C 240.415,738.216 242.081,738.549 243.5,739.5C 235.962,740.75 228.628,742.417 221.5,744.5C 220.883,744.611 220.383,744.944 220,745.5C 213.145,769.587 205.978,793.587 198.5,817.5C 192.887,815.513 187.22,813.68 181.5,812C 180.572,811.612 179.905,810.945 179.5,810C 181.811,802.902 183.811,795.735 185.5,788.5C 189.406,777.439 192.739,766.105 195.5,754.5C 198.139,746.247 200.806,737.913 203.5,729.5C 204.338,729.842 204.672,730.508 204.5,731.5C 196.693,757.732 189.36,784.065 182.5,810.5C 184.5,810.833 186.5,811.167 188.5,811.5C 244.135,621.459 300.468,431.626 357.5,242C 357.43,241.235 357.097,240.735 356.5,240.5C 356.5,239.833 356.833,239.5 357.5,239.5C 358.93,239.421 360.264,239.754 361.5,240.5C 365.02,235.345 366.186,229.678 365,223.5C 364.303,221.416 363.136,219.749 361.5,218.5C 359.167,217.833 356.833,217.167 354.5,216.5 Z"/></g>
<g><path style="opacity:1" fill="#f8f7f7" d="M 361.5,218.5 C 363.136,219.749 364.303,221.416 365,223.5C 366.186,229.678 365.02,235.345 361.5,240.5C 360.264,239.754 358.93,239.421 357.5,239.5C 352.714,237.401 347.714,235.568 342.5,234C 341.708,227.604 344.374,222.937 350.5,220C 354.026,218.663 357.692,218.163 361.5,218.5 Z"/></g>
<g><path style="opacity:1" fill="#32302a" d="M 354.5,216.5 C 356.833,217.167 359.167,217.833 361.5,218.5C 357.692,218.163 354.026,218.663 350.5,220C 344.374,222.937 341.708,227.604 342.5,234C 347.714,235.568 352.714,237.401 357.5,239.5C 356.833,239.5 356.5,239.833 356.5,240.5C 354.194,240.007 351.861,239.674 349.5,239.5C 336.101,287.114 322.101,334.448 307.5,381.5C 307.5,380.833 307.167,380.5 306.5,380.5C 312.631,358.775 318.964,337.108 325.5,315.5C 328.192,305.397 331.192,295.397 334.5,285.5C 335.833,280.5 337.167,275.5 338.5,270.5C 340.498,264.171 342.498,257.838 344.5,251.5C 345.635,246.763 346.968,242.097 348.5,237.5C 347.5,237.5 346.5,237.5 345.5,237.5C 343.461,236.422 341.294,235.422 339,234.5C 339.963,225.027 345.13,219.027 354.5,216.5 Z"/></g>
<g><path style="opacity:1" fill="#fdfcfa" d="M 345.5,237.5 C 346.5,237.5 347.5,237.5 348.5,237.5C 346.968,242.097 345.635,246.763 344.5,251.5C 334.822,255.228 325.156,259.061 315.5,263C 310.188,267.761 310.188,272.428 315.5,277C 317.833,277.667 320.167,277.667 322.5,277C 327.741,274.544 333.075,272.377 338.5,270.5C 337.167,275.5 335.833,280.5 334.5,285.5C 323.405,292.747 312.905,292.08 303,283.5C 297.051,274.472 297.051,265.472 303,256.5C 304.41,255.213 305.91,254.046 307.5,253C 319.914,247.142 332.581,241.975 345.5,237.5 Z"/></g>
<g><path style="opacity:1" fill="#f7f6f6" d="M 356.5,240.5 C 357.097,240.735 357.43,241.235 357.5,242C 300.468,431.626 244.135,621.459 188.5,811.5C 186.5,811.167 184.5,810.833 182.5,810.5C 189.36,784.065 196.693,757.732 204.5,731.5C 211.357,710.417 217.69,689.084 223.5,667.5C 230.54,644.701 237.207,621.701 243.5,598.5C 251.258,575.149 258.258,551.482 264.5,527.5C 272.311,504.173 279.311,480.506 285.5,456.5C 293.614,431.814 300.948,406.814 307.5,381.5C 322.101,334.448 336.101,287.114 349.5,239.5C 351.861,239.674 354.194,240.007 356.5,240.5 Z"/></g>
<g><path style="opacity:1" fill="#fdfcfb" d="M 849.5,238.5 C 855.521,237.965 861.187,239.132 866.5,242C 877.167,246.333 887.833,250.667 898.5,255C 901.759,256.211 904.592,258.044 907,260.5C 908.623,265.696 906.79,268.696 901.5,269.5C 886.52,263.679 871.52,257.846 856.5,252C 849.333,251.167 846.167,254.333 847,261.5C 847.785,263.286 848.951,264.786 850.5,266C 865.077,271.415 879.41,277.415 893.5,284C 897.704,291.799 895.371,295.465 886.5,295C 873.842,288.838 860.842,283.504 847.5,279C 835.241,272.569 831.408,262.736 836,249.5C 839.336,244.269 843.836,240.602 849.5,238.5 Z"/></g>
<g><path style="opacity:1" fill="#bb9755" d="M 344.5,251.5 C 342.498,257.838 340.498,264.171 338.5,270.5C 333.075,272.377 327.741,274.544 322.5,277C 320.167,277.667 317.833,277.667 315.5,277C 310.188,272.428 310.188,267.761 315.5,263C 325.156,259.061 334.822,255.228 344.5,251.5 Z"/></g>
<g><path style="opacity:1" fill="#ec1c24" d="M 866.5,311.5 C 747.334,312.5 628.001,312.833 508.5,312.5C 479.802,303.269 451.468,293.269 423.5,282.5C 493.961,264.739 565.628,257.905 638.5,262C 717.326,265.797 793.326,282.297 866.5,311.5 Z"/></g>
<g><path style="opacity:1" fill="#fefefe" d="M 419.5,283.5 C 447.878,294.072 476.545,304.072 505.5,313.5C 572.631,337.545 639.964,361.211 707.5,384.5C 773.469,408.602 839.802,431.936 906.5,454.5C 987.898,483.079 1069.23,512.079 1150.5,541.5C 1123.84,547.631 1097.18,553.631 1070.5,559.5C 1011.42,571.916 952.42,584.582 893.5,597.5C 786.73,620.519 680.063,643.519 573.5,666.5C 461.613,690.009 349.946,714.009 238.5,738.5C 233.126,739.452 227.793,740.285 222.5,741C 224.324,740.34 225.657,739.173 226.5,737.5C 254.544,718.456 277.877,694.79 296.5,666.5C 312.825,644.865 325.825,621.198 335.5,595.5C 345.756,572.164 353.089,547.831 357.5,522.5C 362.684,500.89 366.351,478.89 368.5,456.5C 369.5,443.834 370.5,431.168 371.5,418.5C 372.648,396.156 372.648,373.823 371.5,351.5C 371.152,336.639 370.152,321.972 368.5,307.5C 367.817,293.371 366.15,279.371 363.5,265.5C 364,265.167 364.5,264.833 365,264.5C 383.077,271.137 401.244,277.47 419.5,283.5 Z"/></g>
<g><path style="opacity:1" fill="#fdfcfb" d="M 267.5,271.5 C 273.983,271.162 276.816,274.162 276,280.5C 261.916,289.126 247.75,297.626 233.5,306C 230.606,308.909 229.773,312.409 231,316.5C 233.412,319.792 236.579,320.959 240.5,320C 253.885,311.127 267.885,303.293 282.5,296.5C 288.091,297.651 289.925,300.984 288,306.5C 274.084,314.541 260.251,322.707 246.5,331C 226.523,335.023 217.023,326.856 218,306.5C 218.561,304.275 219.561,302.275 221,300.5C 225.603,295.896 230.77,292.062 236.5,289C 246.896,283.139 257.229,277.306 267.5,271.5 Z"/></g>
<g><path style="opacity:1" fill="#b28f50" d="M 365.5,299.5 C 360.387,301.223 355.387,303.223 350.5,305.5C 354.022,292.748 357.855,280.082 362,267.5C 363.936,278.088 365.102,288.755 365.5,299.5 Z"/></g>
<g><path style="opacity:1" fill="#fdfcfa" d="M 932.5,276.5 C 938.171,276.112 943.504,277.279 948.5,280C 962.769,287.714 976.269,296.547 989,306.5C 990.167,313.333 987.333,316.167 980.5,315C 967.333,305.913 953.667,297.58 939.5,290C 932.333,289.167 929.167,292.333 930,299.5C 930.785,301.286 931.951,302.786 933.5,304C 947.262,311.628 960.429,320.128 973,329.5C 973.55,337.484 970.05,339.984 962.5,337C 950.834,329.165 938.834,321.831 926.5,315C 914.001,304.345 913.334,293.012 924.5,281C 927.099,279.205 929.766,277.705 932.5,276.5 Z"/></g>
<g><path style="opacity:1" fill="#e91d24" d="M 365.5,299.5 C 366.482,302.962 366.815,306.629 366.5,310.5C 360.926,312.453 354.926,313.12 348.5,312.5C 348.767,310.035 349.434,307.701 350.5,305.5C 355.387,303.223 360.387,301.223 365.5,299.5 Z"/></g>
<g><path style="opacity:1" fill="#3b2523" d="M 420.5,282.5 C 421.5,282.5 422.5,282.5 423.5,282.5C 451.468,293.269 479.802,303.269 508.5,312.5C 508.5,312.833 508.5,313.167 508.5,313.5C 507.5,313.5 506.5,313.5 505.5,313.5C 476.545,304.072 447.878,294.072 419.5,283.5C 419.5,282.833 419.833,282.5 420.5,282.5 Z"/></g>
<g><path style="opacity:1" fill="#ea5358" d="M 366.5,310.5 C 367.404,311.209 367.737,312.209 367.5,313.5C 361.167,313.5 354.833,313.5 348.5,313.5C 348.5,313.167 348.5,312.833 348.5,312.5C 354.926,313.12 360.926,312.453 366.5,310.5 Z"/></g>
<g><path style="opacity:1" fill="#f1595d" d="M 866.5,311.5 C 867.71,311.932 868.71,312.599 869.5,313.5C 750.167,313.5 630.833,313.5 511.5,313.5C 510.5,313.5 509.5,313.5 508.5,313.5C 508.5,313.167 508.5,312.833 508.5,312.5C 628.001,312.833 747.334,312.5 866.5,311.5 Z"/></g>
<g><path style="opacity:1" fill="#fcfafa" d="M 348.5,313.5 C 354.833,313.5 361.167,313.5 367.5,313.5C 367.5,314.167 367.5,314.833 367.5,315.5C 368.579,327.516 369.579,339.516 370.5,351.5C 370.5,362.5 370.5,373.5 370.5,384.5C 356.167,384.5 341.833,384.5 327.5,384.5C 333.925,360.567 340.925,336.9 348.5,313.5 Z"/></g>
<g><path style="opacity:1" fill="#fefefe" d="M 511.5,313.5 C 630.833,313.5 750.167,313.5 869.5,313.5C 911.701,330.586 950.035,353.753 984.5,383C 893.167,383.5 801.834,383.667 710.5,383.5C 643.813,360.939 577.48,337.606 511.5,313.5 Z"/></g>
<g><path style="opacity:1" fill="#fefefd" d="M 325.5,315.5 C 318.964,337.108 312.631,358.775 306.5,380.5C 305.89,381.391 305.557,382.391 305.5,383.5C 275.498,383.667 245.498,383.5 215.5,383C 248.746,355.197 285.413,332.697 325.5,315.5 Z"/></g>
<g><path style="opacity:1" fill="#fdfcfb" d="M 187.5,322.5 C 195.738,321.558 198.572,324.891 196,332.5C 183.071,342.758 170.738,353.758 159,365.5C 158.112,374.622 161.945,377.789 170.5,375C 181.872,364.626 193.539,354.626 205.5,345C 212.333,343.833 215.167,346.667 214,353.5C 201.833,364.333 189.667,375.167 177.5,386C 163.194,392.675 152.694,388.842 146,374.5C 144.734,368.405 145.734,362.738 149,357.5C 161.43,345.229 174.264,333.562 187.5,322.5 Z"/></g>
<g><path style="opacity:1" fill="#fdfcfb" d="M 1006.5,328.5 C 1013.47,327.536 1019.81,329.036 1025.5,333C 1038.3,343.465 1050.13,354.965 1061,367.5C 1062.17,374.333 1059.33,377.167 1052.5,376C 1041.02,364.769 1029.36,353.769 1017.5,343C 1010.54,339.549 1006.2,341.549 1004.5,349C 1004.63,350.627 1005.13,352.127 1006,353.5C 1017.6,363.101 1028.6,373.434 1039,384.5C 1041.98,392.05 1039.48,395.55 1031.5,395C 1022.44,385.266 1012.77,376.266 1002.5,368C 993.004,360.51 990.171,351.01 994,339.5C 997.124,334.536 1001.29,330.87 1006.5,328.5 Z"/></g>
<g><path style="opacity:1" fill="#333331" d="M 505.5,313.5 C 506.5,313.5 507.5,313.5 508.5,313.5C 509.5,313.5 510.5,313.5 511.5,313.5C 577.48,337.606 643.813,360.939 710.5,383.5C 710.5,383.833 710.5,384.167 710.5,384.5C 709.5,384.5 708.5,384.5 707.5,384.5C 639.964,361.211 572.631,337.545 505.5,313.5 Z"/></g>
<g><path style="opacity:1" fill="#484645" d="M 368.5,307.5 C 370.152,321.972 371.152,336.639 371.5,351.5C 371.167,351.5 370.833,351.5 370.5,351.5C 369.579,339.516 368.579,327.516 367.5,315.5C 368.473,313.052 368.806,310.385 368.5,307.5 Z"/></g>
<g><path style="opacity:1" fill="#ec1c24" d="M 304.5,384.5 C 298.146,407.916 291.479,431.249 284.5,454.5C 240.833,454.5 197.167,454.5 153.5,454.5C 169.263,428.22 188.93,405.054 212.5,385C 243.165,384.5 273.832,384.333 304.5,384.5 Z"/></g>
<g><path style="opacity:1" fill="#eb1c23" d="M 327.5,384.5 C 341.833,384.5 356.167,384.5 370.5,384.5C 370.5,393.5 370.5,402.5 370.5,411.5C 369.288,425.667 368.288,440 367.5,454.5C 347.167,454.5 326.833,454.5 306.5,454.5C 313.13,430.953 320.13,407.619 327.5,384.5 Z"/></g>
<g><path style="opacity:1" fill="#ec1c24" d="M 713.5,384.5 C 804.834,384.333 896.167,384.5 987.5,385C 1011.09,405.073 1030.76,428.24 1046.5,454.5C 1001.83,454.5 957.167,454.5 912.5,454.5C 910.5,454.167 908.5,453.833 906.5,453.5C 842.113,430.704 777.779,407.704 713.5,384.5 Z"/></g>
<g><path style="opacity:1" fill="#fdfcfb" d="M 121.5,388.5 C 127.653,388.484 130.486,391.484 130,397.5C 120.009,410.142 111.009,423.476 103,437.5C 101.674,445.171 104.841,448.671 112.5,448C 114.286,447.215 115.786,446.049 117,444.5C 124.634,431.394 133.134,418.894 142.5,407C 149.795,405.382 152.962,408.215 152,415.5C 143.008,426.812 135.008,438.812 128,451.5C 121.45,459.906 112.95,462.739 102.5,460C 92.6745,455.183 88.5078,447.349 90,436.5C 98.3333,419.015 108.833,403.015 121.5,388.5 Z"/></g>
<g><path style="opacity:1" fill="#fdfcfb" d="M 1068.5,395.5 C 1076.88,394.38 1084.04,396.714 1090,402.5C 1099.42,416.335 1108.09,430.668 1116,445.5C 1116.21,452.625 1112.88,455.291 1106,453.5C 1098.09,438.668 1089.42,424.335 1080,410.5C 1071.29,406.218 1066.96,408.885 1067,418.5C 1075.17,430.834 1082.84,443.501 1090,456.5C 1092.04,462.352 1090.04,465.685 1084,466.5C 1081.85,466.357 1080.18,465.357 1079,463.5C 1070.99,449.468 1062.99,435.468 1055,421.5C 1052.92,409.316 1057.42,400.65 1068.5,395.5 Z"/></g>
<g><path style="opacity:1" fill="#392422" d="M 306.5,380.5 C 307.167,380.5 307.5,380.833 307.5,381.5C 300.948,406.814 293.614,431.814 285.5,456.5C 285.5,455.833 285.167,455.5 284.5,455.5C 284.5,455.167 284.5,454.833 284.5,454.5C 291.479,431.249 298.146,407.916 304.5,384.5C 305.167,384.5 305.5,384.167 305.5,383.5C 305.557,382.391 305.89,381.391 306.5,380.5 Z"/></g>
<g><path style="opacity:1" fill="#463735" d="M 370.5,351.5 C 370.833,351.5 371.167,351.5 371.5,351.5C 372.648,373.823 372.648,396.156 371.5,418.5C 370.532,416.393 370.198,414.059 370.5,411.5C 370.5,402.5 370.5,393.5 370.5,384.5C 370.5,373.5 370.5,362.5 370.5,351.5 Z"/></g>
<g><path style="opacity:1" fill="#3c2624" d="M 707.5,384.5 C 708.5,384.5 709.5,384.5 710.5,384.5C 711.5,384.5 712.5,384.5 713.5,384.5C 777.779,407.704 842.113,430.704 906.5,453.5C 906.5,453.833 906.5,454.167 906.5,454.5C 839.802,431.936 773.469,408.602 707.5,384.5 Z"/></g>
<g><path style="opacity:1" fill="#66312e" d="M 370.5,411.5 C 370.198,414.059 370.532,416.393 371.5,418.5C 370.5,431.168 369.5,443.834 368.5,456.5C 367.833,456.5 367.5,456.167 367.5,455.5C 367.5,455.167 367.5,454.833 367.5,454.5C 368.288,440 369.288,425.667 370.5,411.5 Z"/></g>
<g><path style="opacity:1" fill="#020202" d="M 597.5,446.5 C 617.072,444.483 635.905,447.15 654,454.5C 652.108,465.727 649.108,476.727 645,487.5C 629.655,479.07 613.488,476.903 596.5,481C 587.064,487.149 586.064,494.482 593.5,503C 603.5,507.333 613.5,511.667 623.5,516C 634.588,522.834 640.255,532.834 640.5,546C 640.624,572.879 627.624,589.546 601.5,596C 579.285,601.237 557.285,600.57 535.5,594C 531.554,592.694 527.888,590.861 524.5,588.5C 527.905,577.952 530.905,567.285 533.5,556.5C 543.462,560.764 553.795,563.931 564.5,566C 571.833,566.667 579.167,566.667 586.5,566C 597.609,564.567 602.109,558.401 600,547.5C 598.878,545.376 597.378,543.543 595.5,542C 584.599,537.883 573.933,533.217 563.5,528C 553.04,519.98 548.373,509.313 549.5,496C 550.304,474.08 560.971,459.08 581.5,451C 586.929,449.386 592.263,447.886 597.5,446.5 Z"/></g>
<g><path style="opacity:1" fill="#010101" d="M 437.5,595.5 C 424.456,596.147 411.789,595.48 399.5,593.5C 409.218,557.011 419.551,520.677 430.5,484.5C 424.537,483.504 418.537,483.171 412.5,483.5C 414.584,472.083 417.584,460.917 421.5,450C 445.167,449.333 468.833,449.333 492.5,450C 528.399,452.991 543.232,472.158 537,507.5C 532.025,523.628 522.192,535.795 507.5,544C 488.779,552.344 469.113,556.177 448.5,555.5C 444.42,568.737 440.753,582.071 437.5,595.5 Z"/></g>
<g><path style="opacity:1" fill="#010101" d="M 721.5,595.5 C 704.833,595.5 688.167,595.5 671.5,595.5C 671.768,593.901 671.434,592.568 670.5,591.5C 667.95,544.158 665.284,496.824 662.5,449.5C 675.833,449.5 689.167,449.5 702.5,449.5C 703.3,484.164 703.967,518.83 704.5,553.5C 705.5,553.5 706.5,553.5 707.5,553.5C 718.864,530.44 730.531,507.44 742.5,484.5C 736.167,483.833 729.833,483.167 723.5,482.5C 726.968,471.628 729.968,460.628 732.5,449.5C 756.169,449.333 779.836,449.5 803.5,450C 776.013,498.481 748.679,546.981 721.5,595.5 Z"/></g>
<g><path style="opacity:1" fill="#fad1d2" d="M 152.5,455.5 C 152.5,454.833 152.833,454.5 153.5,454.5C 197.167,454.5 240.833,454.5 284.5,454.5C 284.5,454.833 284.5,455.167 284.5,455.5C 284.5,456.167 284.167,456.5 283.5,456.5C 240.003,455.501 196.337,455.168 152.5,455.5 Z"/></g>
<g><path style="opacity:1" fill="#f9d1d1" d="M 912.5,454.5 C 957.167,454.5 1001.83,454.5 1046.5,454.5C 1047.17,454.5 1047.5,454.833 1047.5,455.5C 1003.66,455.168 959.997,455.501 916.5,456.5C 915.005,456.011 913.671,455.345 912.5,454.5 Z"/></g>
<g><path style="opacity:1" fill="#fefefe" d="M 152.5,455.5 C 196.337,455.168 240.003,455.501 283.5,456.5C 276.989,479.544 270.322,502.544 263.5,525.5C 217.5,525.5 171.5,525.5 125.5,525.5C 130.174,500.476 139.174,477.142 152.5,455.5 Z"/></g>
<g><path style="opacity:1" fill="#fdfdfd" d="M 306.5,454.5 C 326.833,454.5 347.167,454.5 367.5,454.5C 367.5,454.833 367.5,455.167 367.5,455.5C 364.742,477.859 361.075,500.192 356.5,522.5C 356.737,523.791 356.404,524.791 355.5,525.5C 332.167,525.5 308.833,525.5 285.5,525.5C 292.303,501.759 299.303,478.092 306.5,454.5 Z"/></g>
<g><path style="opacity:1" fill="#fdfcfc" d="M 916.5,456.5 C 959.997,455.501 1003.66,455.168 1047.5,455.5C 1057.95,472.73 1065.95,491.063 1071.5,510.5C 1019.72,492.772 968.051,474.772 916.5,456.5 Z"/></g>
<g><path style="opacity:1" fill="#fdfcfa" d="M 74.5,472.5 C 80.1135,471.291 83.1135,473.457 83.5,479C 79.3676,492.658 75.8676,506.491 73,520.5C 70.4024,530.222 73.9024,534.389 83.5,533C 85.3333,532.5 86.5,531.333 87,529.5C 89.285,514.026 93.285,499.026 99,484.5C 101.497,482.522 104.331,482.022 107.5,483C 109.357,484.182 110.357,485.849 110.5,488C 105.569,503.992 101.403,520.158 98,536.5C 90.1398,546.562 80.3065,549.062 68.5,544C 61.0112,537.892 58.1778,530.059 60,520.5C 62.5749,505.867 66.2416,491.533 71,477.5C 71.9973,475.677 73.1639,474.01 74.5,472.5 Z"/></g>
<g><path style="opacity:1" fill="#fdfcfa" d="M 1142.5,535.5 C 1137.61,534.204 1132.94,532.538 1128.5,530.5C 1127.51,520.361 1125.67,510.361 1123,500.5C 1122.17,496.986 1120.67,493.819 1118.5,491C 1113.74,489.556 1109.91,490.723 1107,494.5C 1108.17,504.511 1109.67,514.511 1111.5,524.5C 1107.12,523.322 1102.79,521.988 1098.5,520.5C 1096.51,513.071 1094.85,505.571 1093.5,498C 1095.98,482.516 1104.98,475.849 1120.5,478C 1126.27,480.106 1130.44,483.939 1133,489.5C 1137.26,504.609 1140.42,519.942 1142.5,535.5 Z"/></g>
<g><path style="opacity:1" fill="#fafafa" d="M 469.5,482.5 C 478.162,481.663 486.495,482.829 494.5,486C 500.631,493.334 501.131,501.167 496,509.5C 490.727,516.054 483.894,519.888 475.5,521C 469.843,521.499 464.176,521.666 458.5,521.5C 461.703,508.351 465.37,495.351 469.5,482.5 Z"/></g>
<g><path style="opacity:1" fill="#363634" d="M 284.5,455.5 C 285.167,455.5 285.5,455.833 285.5,456.5C 279.311,480.506 272.311,504.173 264.5,527.5C 264.5,526.833 264.167,526.5 263.5,526.5C 263.5,526.167 263.5,525.833 263.5,525.5C 270.322,502.544 276.989,479.544 283.5,456.5C 284.167,456.5 284.5,456.167 284.5,455.5 Z"/></g>
<g><path style="opacity:1" fill="#5d5d5c" d="M 367.5,455.5 C 367.5,456.167 367.833,456.5 368.5,456.5C 366.351,478.89 362.684,500.89 357.5,522.5C 357.167,522.5 356.833,522.5 356.5,522.5C 361.075,500.192 364.742,477.859 367.5,455.5 Z"/></g>
<g><path style="opacity:1" fill="#bb9856" d="M 1128.5,530.5 C 1122.62,528.875 1116.95,526.875 1111.5,524.5C 1109.67,514.511 1108.17,504.511 1107,494.5C 1109.91,490.723 1113.74,489.556 1118.5,491C 1120.67,493.819 1122.17,496.986 1123,500.5C 1125.67,510.361 1127.51,520.361 1128.5,530.5 Z"/></g>
<g><path style="opacity:1" fill="#ec1e25" d="M 125.5,525.5 C 171.5,525.5 217.5,525.5 263.5,525.5C 263.5,525.833 263.5,526.167 263.5,526.5C 256.19,549.742 249.19,573.075 242.5,596.5C 203.5,596.5 164.5,596.5 125.5,596.5C 123.072,584.675 122.072,572.675 122.5,560.5C 122.056,548.652 123.056,536.985 125.5,525.5 Z"/></g>
<g><path style="opacity:1" fill="#ec1c23" d="M 285.5,525.5 C 308.833,525.5 332.167,525.5 355.5,525.5C 350.308,549.074 343.308,572.074 334.5,594.5C 334.5,595.167 334.167,595.5 333.5,595.5C 310.475,596.156 287.809,595.49 265.5,593.5C 271.859,570.727 278.526,548.06 285.5,525.5 Z"/></g>
<g><path style="opacity:1" fill="#33302c" d="M 906.5,453.5 C 908.5,453.833 910.5,454.167 912.5,454.5C 913.671,455.345 915.005,456.011 916.5,456.5C 968.051,474.772 1019.72,492.772 1071.5,510.5C 1080.33,514.071 1089.33,517.405 1098.5,520.5C 1102.79,521.988 1107.12,523.322 1111.5,524.5C 1116.95,526.875 1122.62,528.875 1128.5,530.5C 1132.94,532.538 1137.61,534.204 1142.5,535.5C 1148.1,537.757 1153.77,539.923 1159.5,542C 1132.07,547.868 1104.74,554.035 1077.5,560.5C 1076.17,560.5 1074.83,560.5 1073.5,560.5C 1072.21,560.737 1071.21,560.404 1070.5,559.5C 1097.18,553.631 1123.84,547.631 1150.5,541.5C 1069.23,512.079 987.898,483.079 906.5,454.5C 906.5,454.167 906.5,453.833 906.5,453.5 Z"/></g>
<g><path style="opacity:1" fill="#382421" d="M 263.5,526.5 C 264.167,526.5 264.5,526.833 264.5,527.5C 258.258,551.482 251.258,575.149 243.5,598.5C 243.5,597.833 243.167,597.5 242.5,597.5C 242.5,597.167 242.5,596.833 242.5,596.5C 249.19,573.075 256.19,549.742 263.5,526.5 Z"/></g>
<g><path style="opacity:1" fill="#eb2327" d="M 1073.5,560.5 C 1074.83,560.5 1076.17,560.5 1077.5,560.5C 1078.02,572.678 1077.02,584.678 1074.5,596.5C 1020.17,596.5 965.833,596.5 911.5,596.5C 965.454,584.286 1019.45,572.286 1073.5,560.5 Z"/></g>
<g><path style="opacity:1" fill="#fdfcfa" d="M 88.5,566.5 C 92.6838,565.704 95.8504,567.037 98,570.5C 98.937,584.331 100.937,597.998 104,611.5C 105.559,623.613 100.725,632.113 89.5,637C 77.9462,639.307 69.7795,635.14 65,624.5C 59.8873,606.84 57.554,588.84 58,570.5C 62.8191,566.081 66.8191,566.748 70,572.5C 71.034,588.703 73.3674,604.703 77,620.5C 81.0346,625.364 85.368,625.698 90,621.5C 90.923,619.966 91.423,618.299 91.5,616.5C 88.0308,600.998 86.1975,585.332 86,569.5C 87.045,568.627 87.8783,567.627 88.5,566.5 Z"/></g>
<g><path style="opacity:1" fill="#fdfcfb" d="M 1116.5,567.5 C 1136.32,567.083 1144.49,576.749 1141,596.5C 1138.84,611.119 1135.51,625.453 1131,639.5C 1124.79,644.317 1120.96,642.817 1119.5,635C 1124.21,618.762 1127.38,602.262 1129,585.5C 1126.93,580.857 1123.43,579.357 1118.5,581C 1116.33,581.833 1114.83,583.333 1114,585.5C 1112.49,600.924 1109.15,615.924 1104,630.5C 1098.2,635.232 1094.36,633.898 1092.5,626.5C 1096.49,611.704 1099.66,596.704 1102,581.5C 1104.87,574.675 1109.7,570.008 1116.5,567.5 Z"/></g>
<g><path style="opacity:1" fill="#362826" d="M 1070.5,559.5 C 1071.21,560.404 1072.21,560.737 1073.5,560.5C 1019.45,572.286 965.454,584.286 911.5,596.5C 906.729,596.538 902.062,597.204 897.5,598.5C 895.901,598.768 894.568,598.434 893.5,597.5C 952.42,584.582 1011.42,571.916 1070.5,559.5 Z"/></g>
<g><path style="opacity:1" fill="#472927" d="M 356.5,522.5 C 356.833,522.5 357.167,522.5 357.5,522.5C 353.089,547.831 345.756,572.164 335.5,595.5C 335.5,594.833 335.167,594.5 334.5,594.5C 343.308,572.074 350.308,549.074 355.5,525.5C 356.404,524.791 356.737,523.791 356.5,522.5 Z"/></g>
<g><path style="opacity:1" fill="#ef656a" d="M 265.5,593.5 C 287.809,595.49 310.475,596.156 333.5,595.5C 333.5,595.833 333.5,596.167 333.5,596.5C 310.5,596.5 287.5,596.5 264.5,596.5C 264.263,595.209 264.596,594.209 265.5,593.5 Z"/></g>
<g><path style="opacity:1" fill="#666666" d="M 399.5,593.5 C 411.789,595.48 424.456,596.147 437.5,595.5C 424.677,596.495 411.677,596.829 398.5,596.5C 398.263,595.209 398.596,594.209 399.5,593.5 Z"/></g>
<g><path style="opacity:1" fill="#646464" d="M 670.5,591.5 C 671.434,592.568 671.768,593.901 671.5,595.5C 688.167,595.5 704.833,595.5 721.5,595.5C 704.675,596.497 687.675,596.83 670.5,596.5C 670.5,594.833 670.5,593.167 670.5,591.5 Z"/></g>
<g><path style="opacity:1" fill="#fefefe" d="M 125.5,596.5 C 164.5,596.5 203.5,596.5 242.5,596.5C 242.5,596.833 242.5,597.167 242.5,597.5C 235.526,620.06 228.859,642.727 222.5,665.5C 222.5,666.167 222.167,666.5 221.5,666.5C 198.5,666.5 175.5,666.5 152.5,666.5C 139.069,644.955 130.069,621.622 125.5,596.5 Z"/></g>
<g><path style="opacity:1" fill="#fdfdfd" d="M 264.5,596.5 C 287.5,596.5 310.5,596.5 333.5,596.5C 323.404,621.368 310.737,644.701 295.5,666.5C 295.167,666.5 294.833,666.5 294.5,666.5C 277.5,666.5 260.5,666.5 243.5,666.5C 250.507,643.134 257.507,619.801 264.5,596.5 Z"/></g>
<g><path style="opacity:1" fill="#fefefe" d="M 911.5,596.5 C 965.833,596.5 1020.17,596.5 1074.5,596.5C 1069.93,621.622 1060.93,644.955 1047.5,666.5C 893.5,666.5 739.5,666.5 585.5,666.5C 689.435,643.621 793.435,620.954 897.5,598.5C 902.062,597.204 906.729,596.538 911.5,596.5 Z"/></g>
<g><path style="opacity:1" fill="#333332" d="M 893.5,597.5 C 894.568,598.434 895.901,598.768 897.5,598.5C 793.435,620.954 689.435,643.621 585.5,666.5C 583.05,666.298 580.717,666.631 578.5,667.5C 577.081,666.549 575.415,666.216 573.5,666.5C 680.063,643.519 786.73,620.519 893.5,597.5 Z"/></g>
<g><path style="opacity:1" fill="#373635" d="M 334.5,594.5 C 335.167,594.5 335.5,594.833 335.5,595.5C 325.825,621.198 312.825,644.865 296.5,666.5C 296.167,666.5 295.833,666.5 295.5,666.5C 310.737,644.701 323.404,621.368 333.5,596.5C 333.5,596.167 333.5,595.833 333.5,595.5C 334.167,595.5 334.5,595.167 334.5,594.5 Z"/></g>
<g><path style="opacity:1" fill="#fdfcfb" d="M 109.5,649.5 C 112.97,648.875 115.804,649.875 118,652.5C 125.159,666.821 132.825,680.821 141,694.5C 141.833,712.333 133.333,720.833 115.5,720C 111.865,719.184 108.865,717.35 106.5,714.5C 96.7374,700.652 88.2374,685.985 81,670.5C 79.3338,663.17 82.1671,660.003 89.5,661C 97.2877,675.412 105.454,689.578 114,703.5C 119.167,709.092 123.833,708.759 128,702.5C 128.667,700.5 128.667,698.5 128,696.5C 119.907,683.986 112.574,670.986 106,657.5C 105.52,654.137 106.687,651.47 109.5,649.5 Z"/></g>
<g><path style="opacity:1" fill="#fdfcfb" d="M 1088.5,654.5 C 1107.19,652.688 1115.69,661.021 1114,679.5C 1106.66,696.354 1097.16,711.854 1085.5,726C 1081.54,728.385 1078.38,727.552 1076,723.5C 1075.33,721.833 1075.33,720.167 1076,718.5C 1085.33,705.839 1093.67,692.506 1101,678.5C 1102.87,670.381 1099.71,666.548 1091.5,667C 1086.46,672.906 1082.29,679.406 1079,686.5C 1074.22,694.275 1069.06,701.775 1063.5,709C 1058.23,710.734 1054.56,709.067 1052.5,704C 1061.29,690.932 1069.46,677.432 1077,663.5C 1080.16,659.493 1083.99,656.493 1088.5,654.5 Z"/></g>
<g><path style="opacity:1" fill="#373735" d="M 242.5,597.5 C 243.167,597.5 243.5,597.833 243.5,598.5C 237.207,621.701 230.54,644.701 223.5,667.5C 223.672,666.508 223.338,665.842 222.5,665.5C 228.859,642.727 235.526,620.06 242.5,597.5 Z"/></g>
<g><path style="opacity:1" fill="#f17579" d="M 243.5,667.5 C 243.5,667.167 243.5,666.833 243.5,666.5C 260.5,666.5 277.5,666.5 294.5,666.5C 294.672,667.492 294.338,668.158 293.5,668.5C 277.008,667.503 260.342,667.17 243.5,667.5 Z"/></g>
<g><path style="opacity:1" fill="#3d2624" d="M 294.5,666.5 C 294.833,666.5 295.167,666.5 295.5,666.5C 295.833,666.5 296.167,666.5 296.5,666.5C 277.877,694.79 254.544,718.456 226.5,737.5C 225.833,737.5 225.167,737.5 224.5,737.5C 251.139,718.194 274.139,695.194 293.5,668.5C 294.338,668.158 294.672,667.492 294.5,666.5 Z"/></g>
<g><path style="opacity:1" fill="#ec2226" d="M 152.5,666.5 C 175.5,666.5 198.5,666.5 221.5,666.5C 215.5,687.499 209.5,708.499 203.5,729.5C 183.095,711.112 166.095,690.112 152.5,666.5 Z"/></g>
<g><path style="opacity:1" fill="#ea1c23" d="M 243.5,667.5 C 260.342,667.17 277.008,667.503 293.5,668.5C 274.139,695.194 251.139,718.194 224.5,737.5C 223.883,737.611 223.383,737.944 223,738.5C 229.306,714.741 236.14,691.074 243.5,667.5 Z"/></g>
<g><path style="opacity:1" fill="#ec1e24" d="M 585.5,666.5 C 739.5,666.5 893.5,666.5 1047.5,666.5C 1031.94,693.741 1011.94,717.407 987.5,737.5C 742.833,737.5 498.167,737.5 253.5,737.5C 361.624,713.674 469.957,690.34 578.5,667.5C 580.717,666.631 583.05,666.298 585.5,666.5 Z"/></g>
<g><path style="opacity:1" fill="#352826" d="M 573.5,666.5 C 575.415,666.216 577.081,666.549 578.5,667.5C 469.957,690.34 361.624,713.674 253.5,737.5C 250.094,737.956 246.761,738.622 243.5,739.5C 242.081,738.549 240.415,738.216 238.5,738.5C 349.946,714.009 461.613,690.009 573.5,666.5 Z"/></g>
<g><path style="opacity:1" fill="#382321" d="M 222.5,665.5 C 223.338,665.842 223.672,666.508 223.5,667.5C 217.69,689.084 211.357,710.417 204.5,731.5C 204.672,730.508 204.338,729.842 203.5,729.5C 209.5,708.499 215.5,687.499 221.5,666.5C 222.167,666.5 222.5,666.167 222.5,665.5 Z"/></g>
<g><path style="opacity:1" fill="#fdfcfa" d="M 195.5,754.5 C 192.739,766.105 189.406,777.439 185.5,788.5C 178.81,789.521 172.81,788.021 167.5,784C 155.667,773.5 144.5,762.333 134,750.5C 131.523,746.22 132.356,742.72 136.5,740C 138.635,739.365 140.635,739.699 142.5,741C 152.5,752.333 163.167,763 174.5,773C 184.188,778.08 188.688,775.247 188,764.5C 175.632,753.799 164.299,742.133 154,729.5C 154.146,723.366 157.312,720.866 163.5,722C 173.7,733.366 184.366,744.199 195.5,754.5 Z"/></g>
<g><path style="opacity:1" fill="#fdfcfb" d="M 1035.5,727.5 C 1050.09,726.267 1058.75,732.767 1061.5,747C 1061.15,751.885 1059.65,756.385 1057,760.5C 1045.69,772.715 1033.52,783.882 1020.5,794C 1012.74,796.579 1009.57,793.746 1011,785.5C 1022.97,775.202 1034.63,764.535 1046,753.5C 1050.23,744.041 1047.06,739.874 1036.5,741C 1025.73,752.773 1014.07,763.44 1001.5,773C 995.379,773.546 992.546,770.712 993,764.5C 1004.85,753.467 1016.68,742.301 1028.5,731C 1030.93,729.787 1033.26,728.621 1035.5,727.5 Z"/></g>
<g><path style="opacity:1" fill="#fefefe" d="M 253.5,737.5 C 498.167,737.5 742.833,737.5 987.5,737.5C 952.783,767.212 914.117,790.879 871.5,808.5C 690.5,808.5 509.5,808.5 328.5,808.5C 289.424,792.479 253.758,771.145 221.5,744.5C 228.628,742.417 235.962,740.75 243.5,739.5C 246.761,738.622 250.094,737.956 253.5,737.5 Z"/></g>
<g><path style="opacity:1" fill="#fdfcfb" d="M 223.5,779.5 C 225.989,779.298 228.323,779.798 230.5,781C 242.161,789.166 254.161,796.832 266.5,804C 278.5,815.667 278.5,827.333 266.5,839C 260.724,841.394 254.724,842.061 248.5,841C 233.466,832.624 218.966,823.457 205,813.5C 201.752,805.758 204.252,802.258 212.5,803C 225.492,812.165 238.826,820.831 252.5,829C 260.708,829.452 263.875,825.619 262,817.5C 250.585,809.876 239.085,802.376 227.5,795C 224.72,793.188 222.22,791.021 220,788.5C 219.333,786.833 219.333,785.167 220,783.5C 221.376,782.295 222.542,780.962 223.5,779.5 Z"/></g>
<g><path style="opacity:1" fill="#fdfcfb" d="M 963.5,785.5 C 982.527,784.056 991.361,792.723 990,811.5C 986.888,818.279 982.055,823.445 975.5,827C 964.091,834.067 952.424,840.733 940.5,847C 932.761,847.229 930.594,843.729 934,836.5C 949.007,828.501 963.341,819.501 977,809.5C 978.833,800.667 975.333,797.167 966.5,799C 953.336,807.999 939.503,815.832 925,822.5C 919.859,821.089 918.192,817.755 920,812.5C 934.816,803.851 949.316,794.851 963.5,785.5 Z"/></g>
<g><path style="opacity:1" fill="#ec1c24" d="M 328.5,808.5 C 509.5,808.5 690.5,808.5 871.5,808.5C 809.931,835.143 745.598,851.643 678.5,858C 566.79,870.118 458.123,857.118 352.5,819C 344.275,815.768 336.275,812.268 328.5,808.5 Z"/></g>
<g><path style="opacity:1" fill="#fdfcfb" d="M 299.5,824.5 C 301.857,824.337 304.19,824.503 306.5,825C 320.716,831.608 335.049,837.941 349.5,844C 358.448,852.546 359.948,862.38 354,873.5C 348.49,879.559 341.657,882.059 333.5,881C 317.486,875.16 301.82,868.493 286.5,861C 282.741,854.959 284.241,851.126 291,849.5C 305.323,856.053 319.823,862.22 334.5,868C 342.171,869.326 345.671,866.159 345,858.5C 344.215,856.714 343.049,855.214 341.5,854C 327.268,848.551 313.268,842.551 299.5,836C 295.555,832.169 295.555,828.336 299.5,824.5 Z"/></g>
<g><path style="opacity:1" fill="#fdfcfb" d="M 885.5,828.5 C 900.084,827.93 908.417,834.764 910.5,849C 910.161,857.667 906.161,864.001 898.5,868C 886.28,873.277 873.947,878.277 861.5,883C 857.983,884.734 854.316,885.401 850.5,885C 846.968,881.61 846.634,877.943 849.5,874C 865.062,868.219 880.395,861.886 895.5,855C 899.782,846.294 897.115,841.96 887.5,842C 873.279,848.295 858.779,853.795 844,858.5C 838.793,857.774 836.793,854.774 838,849.5C 839.214,847.951 840.714,846.785 842.5,846C 857.214,840.825 871.548,834.991 885.5,828.5 Z"/></g>
<g><path style="opacity:1" fill="#fdfcfa" d="M 382.5,856.5 C 384.857,856.337 387.19,856.503 389.5,857C 403.332,861.291 417.332,864.958 431.5,868C 445.608,875.655 448.774,886.489 441,900.5C 436.367,905.316 430.701,907.982 424,908.5C 407.299,904.759 390.799,900.259 374.5,895C 370.5,891.333 370.5,887.667 374.5,884C 375.667,883.833 376.833,883.667 378,883.5C 393.489,887.564 408.989,891.564 424.5,895.5C 430.959,894.592 433.459,890.926 432,884.5C 431.167,883 430,881.833 428.5,881C 412.701,877.134 397.034,872.8 381.5,868C 378.805,863.978 379.138,860.144 382.5,856.5 Z"/></g>
<g><path style="opacity:1" fill="#fdfcfa" d="M 798.5,859.5 C 809.257,858.295 817.424,862.295 823,871.5C 827.068,884.125 823.235,893.292 811.5,899C 794.891,904.737 777.891,908.404 760.5,910C 756.5,906.333 756.5,902.667 760.5,899C 776.19,895.161 791.856,891.161 807.5,887C 812.833,882.333 812.833,877.667 807.5,873C 804.833,872.333 802.167,872.333 799.5,873C 785.796,876.979 771.963,880.479 758,883.5C 751.499,881.788 749.999,878.121 753.5,872.5C 754.912,871.194 756.579,870.36 758.5,870C 772.282,867.723 785.616,864.223 798.5,859.5 Z"/></g>
<g><path style="opacity:1" fill="#fcfbf9" d="M 476.5,874.5 C 486.684,875.137 496.684,876.804 506.5,879.5C 505.607,882.084 505.274,884.751 505.5,887.5C 499.076,887.04 492.743,886.04 486.5,884.5C 484.476,887.667 484.143,891 485.5,894.5C 491.14,895.628 496.806,896.628 502.5,897.5C 501.908,900.127 501.575,902.794 501.5,905.5C 495.145,905.021 488.812,904.354 482.5,903.5C 481.447,906.852 481.447,910.185 482.5,913.5C 488.154,914.582 493.821,915.582 499.5,916.5C 500.321,919.446 500.321,922.446 499.5,925.5C 489.878,923.97 480.212,922.637 470.5,921.5C 472.126,905.782 474.126,890.115 476.5,874.5 Z"/></g>
<g><path style="opacity:1" fill="#fcfbf9" d="M 721.5,873.5 C 722.5,873.5 723.5,873.5 724.5,873.5C 725.221,876.817 725.388,880.151 725,883.5C 722.5,887.167 720,890.833 717.5,894.5C 728.986,897.805 732.82,905.139 729,916.5C 725.603,920.949 721.103,923.449 715.5,924C 711.514,924.499 707.514,924.666 703.5,924.5C 703.492,921.455 703.159,918.455 702.5,915.5C 706.514,915.666 710.514,915.499 714.5,915C 720.967,913.119 721.967,909.786 717.5,905C 713.848,904.501 710.182,904.335 706.5,904.5C 706.123,901.475 705.956,898.475 706,895.5C 708.377,891.912 710.877,888.412 713.5,885C 708.201,885.327 702.868,885.827 697.5,886.5C 697.5,883.5 697.5,880.5 697.5,877.5C 705.643,876.244 713.643,874.911 721.5,873.5 Z"/></g>
<g><path style="opacity:1" fill="#fdfbf9" d="M 677.5,879.5 C 680.833,879.5 684.167,879.5 687.5,879.5C 688.724,895.175 690.057,910.842 691.5,926.5C 688.119,926.46 684.786,926.793 681.5,927.5C 680.61,914.82 679.61,902.153 678.5,889.5C 675.167,889.5 671.833,889.5 668.5,889.5C 668.5,886.5 668.5,883.5 668.5,880.5C 671.713,880.81 674.713,880.477 677.5,879.5 Z"/></g>
<g><path style="opacity:1" fill="#fcfbf9" d="M 521.5,880.5 C 528.257,880.123 534.924,880.623 541.5,882C 543.344,884.804 544.011,887.97 543.5,891.5C 537.648,889.679 531.648,889.179 525.5,890C 522.833,892.667 522.833,895.333 525.5,898C 531.499,899.88 536.666,903.047 541,907.5C 544.498,918.005 540.998,924.838 530.5,928C 524.431,928.804 518.431,928.471 512.5,927C 511.28,925.475 510.613,923.641 510.5,921.5C 510.833,919.833 511.167,918.167 511.5,916.5C 517.922,919.862 524.422,920.196 531,917.5C 531.667,915.5 531.667,913.5 531,911.5C 526.454,909.478 521.954,907.311 517.5,905C 510.121,895.496 511.454,887.33 521.5,880.5 Z"/></g>
<g><path style="opacity:1" fill="#fdfbf9" d="M 548.5,882.5 C 559.833,882.833 571.167,883.167 582.5,883.5C 582.5,886.5 582.5,889.5 582.5,892.5C 578.167,892.5 573.833,892.5 569.5,892.5C 569.293,905.171 568.96,917.837 568.5,930.5C 565.167,930.5 561.833,930.5 558.5,930.5C 559.015,917.839 559.348,905.173 559.5,892.5C 555.846,892.058 552.179,891.724 548.5,891.5C 548.5,888.5 548.5,885.5 548.5,882.5 Z"/></g>
<g><path style="opacity:1" fill="#fcfbf9" d="M 642.5,881.5 C 654.462,880.951 661.629,886.618 664,898.5C 668.903,922.469 659.403,933.136 635.5,930.5C 635.335,927.15 635.502,923.817 636,920.5C 640.413,921.632 644.913,921.799 649.5,921C 653.36,918.452 654.86,914.952 654,910.5C 643.542,916.519 636.208,913.852 632,902.5C 629.737,892.385 633.237,885.385 642.5,881.5 Z"/></g>
<g><path style="opacity:1" fill="#fcfbf9" d="M 620.5,884.5 C 621.296,900.153 621.629,915.82 621.5,931.5C 618.167,931.5 614.833,931.5 611.5,931.5C 611.829,918.656 611.495,905.989 610.5,893.5C 608.052,892.527 605.385,892.194 602.5,892.5C 602.5,889.833 602.5,887.167 602.5,884.5C 608.5,884.5 614.5,884.5 620.5,884.5 Z"/></g>
<g><path style="opacity:1" fill="#e8dbc4" d="M 620.5,884.5 C 614.5,884.5 608.5,884.5 602.5,884.5C 602.5,887.167 602.5,889.833 602.5,892.5C 605.385,892.194 608.052,892.527 610.5,893.5C 607.5,893.5 604.5,893.5 601.5,893.5C 601.5,890.167 601.5,886.833 601.5,883.5C 608.022,883.177 614.355,883.51 620.5,884.5 Z"/></g>
<g><path style="opacity:1" fill="#bf9c5c" d="M 645.5,890.5 C 650.668,891.119 653.335,894.119 653.5,899.5C 653.43,900.772 653.097,901.938 652.5,903C 644.281,906.119 640.781,903.286 642,894.5C 642.69,892.65 643.856,891.316 645.5,890.5 Z"/></g>
</svg>
